<svg width="443.7" height="139.5" viewBox="0 0 443.7 139.5" xmlns="http://www.w3.org/2000/svg"><g id="svgGroup" stroke-linecap="round" fill-rule="evenodd" font-size="9pt" stroke="#000" stroke-width="0.25mm" fill="black" style="stroke:#000;stroke-width:0.25mm;fill:black"><path d="M 195.75 82.5 L 197.4 81.3 Q 201.3 78.45 205.05 75.45 Q 208.141 72.977 209.907 71.116 A 20.489 20.489 0 0 0 210.6 70.35 Q 212.25 68.7 213.6 67.2 Q 214.95 65.7 216.15 64.05 A 1.229 1.229 0 0 1 216.352 63.813 A 0.799 0.799 0 0 1 216.9 63.6 Q 217.683 63.6 217.785 64.508 A 2.625 2.625 0 0 1 217.8 64.8 Q 217.8 65.421 217.286 66.042 A 3.73 3.73 0 0 1 217.05 66.3 A 393.128 393.128 0 0 1 210.88 73.744 A 429.407 429.407 0 0 1 210.45 74.25 Q 209.715 75.108 207.228 77.317 A 179.128 179.128 0 0 1 206.025 78.375 Q 202.5 81.45 198.6 84.15 A 30.316 30.316 0 0 1 195.919 86 A 25.927 25.927 0 0 1 194.7 86.7 Q 191.85 96.6 186.825 105.975 A 91.901 91.901 0 0 1 176.019 121.971 A 85.449 85.449 0 0 1 175.2 122.925 A 65.165 65.165 0 0 1 167.49 130.474 A 52.938 52.938 0 0 1 161.1 135 A 31.881 31.881 0 0 1 152.399 138.669 A 27.8 27.8 0 0 1 145.65 139.5 A 20.566 20.566 0 0 1 142.849 139.324 Q 139.719 138.892 138.1 137.399 A 5.107 5.107 0 0 1 137.325 136.5 A 11.225 11.225 0 0 1 135.854 133.459 Q 135.374 131.868 135.45 130.2 A 21.227 21.227 0 0 1 138.668 120.634 A 25.382 25.382 0 0 1 139.275 119.7 A 42.486 42.486 0 0 1 144.657 113.319 A 52.024 52.024 0 0 1 147.9 110.4 Q 153.15 106.05 159.15 102.45 A 228.599 228.599 0 0 1 167.581 97.624 A 197.002 197.002 0 0 1 170.775 95.925 A 928.232 928.232 0 0 1 174.793 93.847 Q 177.975 92.213 180.6 90.9 A 105.134 105.134 0 0 0 182.541 89.906 Q 184.336 88.962 185.483 88.245 A 16.64 16.64 0 0 0 186.45 87.6 A 89.419 89.419 0 0 0 188.794 79.555 A 74.353 74.353 0 0 0 189.75 74.925 Q 190.785 68.934 190.508 64.33 A 30.361 30.361 0 0 0 190.5 64.2 Q 189 67.2 186.075 72 Q 183.15 76.8 179.4 80.85 A 35.8 35.8 0 0 1 175.533 84.536 A 29.932 29.932 0 0 1 173.1 86.325 A 13.801 13.801 0 0 1 169.894 87.913 A 11.089 11.089 0 0 1 166.35 88.5 A 9.916 9.916 0 0 1 163.9 88.218 A 6.009 6.009 0 0 1 159.9 85.125 A 15.418 15.418 0 0 1 158.153 78.969 A 18.669 18.669 0 0 1 158.1 77.55 Q 158.1 76.2 158.25 74.85 Q 158.4 73.5 158.7 72.3 A 44.648 44.648 0 0 1 161.719 63.958 A 50.047 50.047 0 0 1 162.3 62.775 Q 164.7 58.05 167.325 54.225 Q 169.489 51.072 171.092 49.194 A 25.498 25.498 0 0 1 171.75 48.45 Q 176.1 43.2 182.025 39.825 A 26.101 26.101 0 0 1 188.762 37.096 A 22.442 22.442 0 0 1 194.1 36.45 A 18.742 18.742 0 0 1 204.197 39.44 A 23.936 23.936 0 0 1 205.95 40.65 Q 208.2 42.45 208.2 44.4 A 4.129 4.129 0 0 1 208.126 45.221 Q 207.867 46.488 206.711 46.632 A 2.521 2.521 0 0 1 206.4 46.65 A 1.907 1.907 0 0 1 204.77 45.809 Q 204.49 45.42 204.3 44.85 A 12.369 12.369 0 0 0 203.176 42.438 Q 202.356 41.114 201.281 40.349 A 5.765 5.765 0 0 0 197.85 39.3 A 13.701 13.701 0 0 0 192.903 40.266 Q 191.181 40.929 189.427 42.047 A 24.345 24.345 0 0 0 188.925 42.375 A 39.216 39.216 0 0 0 183.624 46.688 A 50.386 50.386 0 0 0 180.15 50.4 Q 175.95 55.35 172.575 60.9 A 74.675 74.675 0 0 0 169.391 66.67 A 57.499 57.499 0 0 0 167.25 71.55 A 40.995 40.995 0 0 0 166.222 74.562 Q 165.334 77.565 165.301 79.779 A 11.407 11.407 0 0 0 165.3 79.95 A 7.638 7.638 0 0 0 165.43 81.428 Q 165.94 84 168.45 84 A 6.81 6.81 0 0 0 170.9 83.511 Q 171.883 83.133 172.92 82.463 A 17.308 17.308 0 0 0 174.675 81.15 Q 178.05 78.3 181.2 74.025 Q 184.35 69.75 186.75 65.55 A 55.082 55.082 0 0 0 188.074 63.101 Q 189.381 60.517 189.9 58.65 Q 190.759 55.951 191.919 54.757 A 3.71 3.71 0 0 1 192.45 54.3 A 5.959 5.959 0 0 1 194.024 53.5 A 5.064 5.064 0 0 1 195.6 53.25 A 8.54 8.54 0 0 1 196.321 53.279 A 7.096 7.096 0 0 1 196.725 53.325 A 10.1 10.1 0 0 1 197.339 53.433 A 12.714 12.714 0 0 1 197.85 53.55 A 7.693 7.693 0 0 1 197.928 54.031 Q 197.999 54.56 198.048 55.316 A 35.308 35.308 0 0 1 198.075 55.8 A 53.293 53.293 0 0 1 198.121 57.009 Q 198.15 58.088 198.15 59.4 A 91.762 91.762 0 0 1 198.076 62.937 Q 198.015 64.525 197.902 66.303 A 190.145 190.145 0 0 1 197.625 70.05 Q 197.1 76.35 195.75 82.5 Z M 421.65 82.5 L 423.3 81.3 Q 427.2 78.45 430.95 75.45 Q 434.041 72.977 435.807 71.116 A 20.489 20.489 0 0 0 436.5 70.35 Q 438.15 68.7 439.5 67.2 Q 440.85 65.7 442.05 64.05 A 1.229 1.229 0 0 1 442.252 63.813 A 0.799 0.799 0 0 1 442.8 63.6 Q 443.583 63.6 443.685 64.508 A 2.625 2.625 0 0 1 443.7 64.8 Q 443.7 65.421 443.186 66.042 A 3.73 3.73 0 0 1 442.95 66.3 A 393.128 393.128 0 0 1 436.78 73.744 A 429.407 429.407 0 0 1 436.35 74.25 Q 435.615 75.108 433.128 77.317 A 179.128 179.128 0 0 1 431.925 78.375 Q 428.4 81.45 424.5 84.15 A 30.316 30.316 0 0 1 421.819 86 A 25.927 25.927 0 0 1 420.6 86.7 Q 417.75 96.6 412.725 105.975 A 91.901 91.901 0 0 1 401.919 121.971 A 85.449 85.449 0 0 1 401.1 122.925 A 65.165 65.165 0 0 1 393.39 130.474 A 52.938 52.938 0 0 1 387 135 A 31.881 31.881 0 0 1 378.299 138.669 A 27.8 27.8 0 0 1 371.55 139.5 A 20.566 20.566 0 0 1 368.749 139.324 Q 365.619 138.892 364 137.399 A 5.107 5.107 0 0 1 363.225 136.5 A 11.225 11.225 0 0 1 361.754 133.459 Q 361.274 131.868 361.35 130.2 A 21.227 21.227 0 0 1 364.568 120.634 A 25.382 25.382 0 0 1 365.175 119.7 A 42.486 42.486 0 0 1 370.557 113.319 A 52.024 52.024 0 0 1 373.8 110.4 Q 379.05 106.05 385.05 102.45 A 228.599 228.599 0 0 1 393.481 97.624 A 197.002 197.002 0 0 1 396.675 95.925 A 928.232 928.232 0 0 1 400.693 93.847 Q 403.875 92.213 406.5 90.9 A 105.134 105.134 0 0 0 408.441 89.906 Q 410.236 88.962 411.383 88.245 A 16.64 16.64 0 0 0 412.35 87.6 A 89.419 89.419 0 0 0 414.694 79.555 A 74.353 74.353 0 0 0 415.65 74.925 Q 416.685 68.934 416.408 64.33 A 30.361 30.361 0 0 0 416.4 64.2 Q 414.9 67.2 411.975 72 Q 409.05 76.8 405.3 80.85 A 35.8 35.8 0 0 1 401.433 84.536 A 29.932 29.932 0 0 1 399 86.325 A 13.801 13.801 0 0 1 395.794 87.913 A 11.089 11.089 0 0 1 392.25 88.5 A 9.916 9.916 0 0 1 389.8 88.218 A 6.009 6.009 0 0 1 385.8 85.125 A 15.418 15.418 0 0 1 384.053 78.969 A 18.669 18.669 0 0 1 384 77.55 Q 384 76.2 384.15 74.85 Q 384.3 73.5 384.6 72.3 A 44.648 44.648 0 0 1 387.619 63.958 A 50.047 50.047 0 0 1 388.2 62.775 Q 390.6 58.05 393.225 54.225 Q 395.389 51.072 396.992 49.194 A 25.498 25.498 0 0 1 397.65 48.45 Q 402 43.2 407.925 39.825 A 26.101 26.101 0 0 1 414.662 37.096 A 22.442 22.442 0 0 1 420 36.45 A 18.742 18.742 0 0 1 430.097 39.44 A 23.936 23.936 0 0 1 431.85 40.65 Q 434.1 42.45 434.1 44.4 A 4.129 4.129 0 0 1 434.026 45.221 Q 433.767 46.488 432.611 46.632 A 2.521 2.521 0 0 1 432.3 46.65 A 1.907 1.907 0 0 1 430.67 45.809 Q 430.39 45.42 430.2 44.85 A 12.369 12.369 0 0 0 429.076 42.438 Q 428.256 41.114 427.181 40.349 A 5.765 5.765 0 0 0 423.75 39.3 A 13.701 13.701 0 0 0 418.803 40.266 Q 417.081 40.929 415.327 42.047 A 24.345 24.345 0 0 0 414.825 42.375 A 39.216 39.216 0 0 0 409.524 46.688 A 50.386 50.386 0 0 0 406.05 50.4 Q 401.85 55.35 398.475 60.9 A 74.675 74.675 0 0 0 395.291 66.67 A 57.499 57.499 0 0 0 393.15 71.55 A 40.995 40.995 0 0 0 392.122 74.562 Q 391.234 77.565 391.201 79.779 A 11.407 11.407 0 0 0 391.2 79.95 A 7.638 7.638 0 0 0 391.33 81.428 Q 391.84 84 394.35 84 A 6.81 6.81 0 0 0 396.8 83.511 Q 397.783 83.133 398.82 82.463 A 17.308 17.308 0 0 0 400.575 81.15 Q 403.95 78.3 407.1 74.025 Q 410.25 69.75 412.65 65.55 A 55.082 55.082 0 0 0 413.974 63.101 Q 415.281 60.517 415.8 58.65 Q 416.659 55.951 417.819 54.757 A 3.71 3.71 0 0 1 418.35 54.3 A 5.959 5.959 0 0 1 419.924 53.5 A 5.064 5.064 0 0 1 421.5 53.25 A 8.54 8.54 0 0 1 422.221 53.279 A 7.096 7.096 0 0 1 422.625 53.325 A 10.1 10.1 0 0 1 423.239 53.433 A 12.714 12.714 0 0 1 423.75 53.55 A 7.693 7.693 0 0 1 423.828 54.031 Q 423.899 54.56 423.948 55.316 A 35.308 35.308 0 0 1 423.975 55.8 A 53.293 53.293 0 0 1 424.021 57.009 Q 424.05 58.088 424.05 59.4 A 91.762 91.762 0 0 1 423.976 62.937 Q 423.915 64.525 423.802 66.303 A 190.145 190.145 0 0 1 423.525 70.05 Q 423 76.35 421.65 82.5 Z M 100.65 88.05 Q 107.1 76.05 111.375 64.875 A 279.359 279.359 0 0 1 120.511 43.724 A 305.117 305.117 0 0 1 121.2 42.3 A 11.385 11.385 0 0 1 122.626 40.242 A 7.985 7.985 0 0 1 125.4 38.175 A 13.727 13.727 0 0 1 128.028 37.306 A 10.929 10.929 0 0 1 130.35 37.05 A 14.376 14.376 0 0 1 132.079 37.149 Q 132.945 37.254 133.7 37.471 A 8.84 8.84 0 0 1 133.8 37.5 A 9.469 9.469 0 0 1 133.535 38.056 Q 133.079 38.949 132.114 40.567 A 131.332 131.332 0 0 1 131.475 41.625 A 129.02 129.02 0 0 0 129.544 44.906 A 175.874 175.874 0 0 0 127.5 48.6 A 253.054 253.054 0 0 0 126.656 50.133 Q 125.25 52.706 123 56.925 Q 120 62.55 117.45 68.55 Q 118.75 66.962 121.439 63.427 A 562.663 562.663 0 0 0 121.65 63.15 Q 124.5 59.4 128.25 54.975 Q 132 50.55 136.125 46.425 Q 140.25 42.3 144.225 39.675 A 21.142 21.142 0 0 1 146.629 38.291 Q 147.907 37.67 149.087 37.36 A 8.9 8.9 0 0 1 151.35 37.05 Q 153.75 37.05 155.55 38.55 A 4.899 4.899 0 0 1 157.334 42.131 A 6.828 6.828 0 0 1 157.35 42.6 A 11.137 11.137 0 0 1 156.907 45.592 Q 156.175 48.214 154.231 51.326 A 35.39 35.39 0 0 1 154.2 51.375 Q 151.05 56.4 147.9 61.2 Q 147.408 61.939 146.259 63.788 A 400.556 400.556 0 0 0 145.725 64.65 A 130.166 130.166 0 0 0 144.094 67.369 A 177.944 177.944 0 0 0 142.35 70.425 Q 140.55 73.65 139.275 76.575 Q 138.226 78.981 138.04 80.524 A 5.242 5.242 0 0 0 138 81.15 A 2.945 2.945 0 0 0 138.058 81.763 Q 138.251 82.665 139.085 82.782 A 1.897 1.897 0 0 0 139.35 82.8 A 8.175 8.175 0 0 0 142.303 82.22 Q 143.762 81.658 145.275 80.55 A 46.587 46.587 0 0 0 150.484 76.096 A 51.983 51.983 0 0 0 151.2 75.375 A 161.146 161.146 0 0 0 152.55 73.974 Q 154.194 72.245 155.339 70.922 A 50.004 50.004 0 0 0 155.7 70.5 A 88.053 88.053 0 0 0 157.645 68.309 A 71.754 71.754 0 0 0 158.7 67.05 A 88.271 88.271 0 0 1 161.358 63.947 A 80.88 80.88 0 0 1 161.4 63.9 A 2.996 2.996 0 0 1 161.603 63.714 Q 161.811 63.541 161.982 63.481 A 0.512 0.512 0 0 1 162.15 63.45 A 0.824 0.824 0 0 1 162.622 63.58 Q 162.944 63.798 163.024 64.379 A 3.116 3.116 0 0 1 163.05 64.8 A 2.218 2.218 0 0 1 162.914 65.59 A 1.993 1.993 0 0 1 162.45 66.3 Q 160.8 68.25 159.15 70.275 Q 157.5 72.3 155.7 74.25 Q 154.05 76.2 152.325 78.075 Q 150.6 79.95 148.8 81.6 Q 144.958 85.174 141.436 86.619 A 12.18 12.18 0 0 1 136.8 87.6 Q 133.05 87.6 131.775 85.35 Q 130.5 83.1 130.5 79.8 Q 130.5 76.2 132.45 72 A 66.957 66.957 0 0 1 135.239 66.662 A 81.186 81.186 0 0 1 137.25 63.375 Q 140.1 58.95 143.025 54.75 A 108.112 108.112 0 0 0 145.553 50.961 Q 146.7 49.156 147.637 47.496 A 63.286 63.286 0 0 0 147.9 47.025 A 22.45 22.45 0 0 0 148.886 45.031 Q 149.778 42.955 149.845 41.355 A 6.133 6.133 0 0 0 149.85 41.1 Q 149.85 40.247 148.908 40.203 A 2.263 2.263 0 0 0 148.8 40.2 Q 148.064 40.2 146.173 41.656 A 32.266 32.266 0 0 0 145.275 42.375 A 80.994 80.994 0 0 0 142.556 44.738 A 110.323 110.323 0 0 0 139.65 47.475 A 322.785 322.785 0 0 0 136.744 50.344 A 275.047 275.047 0 0 0 134.025 53.1 Q 131.49 55.707 130.564 56.916 A 10.117 10.117 0 0 0 130.5 57 Q 126.75 61.05 123.225 65.7 Q 119.7 70.35 116.55 74.7 A 43.501 43.501 0 0 0 113.485 79.711 A 40.22 40.22 0 0 0 113.4 79.875 A 119.389 119.389 0 0 1 111.402 83.591 A 140.525 140.525 0 0 1 110.4 85.35 A 3.777 3.777 0 0 1 109.824 86.143 A 2.599 2.599 0 0 1 108.375 86.925 Q 107.1 87.15 105 87.3 A 51.41 51.41 0 0 0 104.288 87.305 Q 103.473 87.316 102.877 87.355 A 15.068 15.068 0 0 0 102.6 87.375 A 3.791 3.791 0 0 0 101.731 87.558 Q 101.342 87.686 100.928 87.899 A 7.187 7.187 0 0 0 100.65 88.05 Z M 326.55 88.05 Q 333 76.05 337.275 64.875 A 279.359 279.359 0 0 1 346.411 43.724 A 305.117 305.117 0 0 1 347.1 42.3 A 11.385 11.385 0 0 1 348.526 40.242 A 7.985 7.985 0 0 1 351.3 38.175 A 13.727 13.727 0 0 1 353.928 37.306 A 10.929 10.929 0 0 1 356.25 37.05 A 14.376 14.376 0 0 1 357.979 37.149 Q 358.845 37.254 359.6 37.471 A 8.84 8.84 0 0 1 359.7 37.5 A 9.469 9.469 0 0 1 359.435 38.056 Q 358.979 38.949 358.014 40.567 A 131.332 131.332 0 0 1 357.375 41.625 A 129.02 129.02 0 0 0 355.444 44.906 A 175.874 175.874 0 0 0 353.4 48.6 A 253.054 253.054 0 0 0 352.556 50.133 Q 351.15 52.706 348.9 56.925 Q 345.9 62.55 343.35 68.55 Q 344.65 66.962 347.339 63.427 A 562.663 562.663 0 0 0 347.55 63.15 Q 350.4 59.4 354.15 54.975 Q 357.9 50.55 362.025 46.425 Q 366.15 42.3 370.125 39.675 A 21.142 21.142 0 0 1 372.529 38.291 Q 373.807 37.67 374.987 37.36 A 8.9 8.9 0 0 1 377.25 37.05 Q 379.65 37.05 381.45 38.55 A 4.899 4.899 0 0 1 383.234 42.131 A 6.828 6.828 0 0 1 383.25 42.6 A 11.137 11.137 0 0 1 382.807 45.592 Q 382.075 48.214 380.131 51.326 A 35.39 35.39 0 0 1 380.1 51.375 Q 376.95 56.4 373.8 61.2 Q 373.308 61.939 372.159 63.788 A 400.556 400.556 0 0 0 371.625 64.65 A 130.166 130.166 0 0 0 369.994 67.369 A 177.944 177.944 0 0 0 368.25 70.425 Q 366.45 73.65 365.175 76.575 Q 364.126 78.981 363.94 80.524 A 5.242 5.242 0 0 0 363.9 81.15 A 2.945 2.945 0 0 0 363.958 81.763 Q 364.151 82.665 364.985 82.782 A 1.897 1.897 0 0 0 365.25 82.8 A 8.175 8.175 0 0 0 368.203 82.22 Q 369.662 81.658 371.175 80.55 A 46.587 46.587 0 0 0 376.384 76.096 A 51.983 51.983 0 0 0 377.1 75.375 A 161.146 161.146 0 0 0 378.45 73.974 Q 380.094 72.245 381.239 70.922 A 50.004 50.004 0 0 0 381.6 70.5 A 88.053 88.053 0 0 0 383.545 68.309 A 71.754 71.754 0 0 0 384.6 67.05 A 88.271 88.271 0 0 1 387.258 63.947 A 80.88 80.88 0 0 1 387.3 63.9 A 2.996 2.996 0 0 1 387.503 63.714 Q 387.711 63.541 387.882 63.481 A 0.512 0.512 0 0 1 388.05 63.45 A 0.824 0.824 0 0 1 388.522 63.58 Q 388.844 63.798 388.924 64.379 A 3.116 3.116 0 0 1 388.95 64.8 A 2.218 2.218 0 0 1 388.814 65.59 A 1.993 1.993 0 0 1 388.35 66.3 Q 386.7 68.25 385.05 70.275 Q 383.4 72.3 381.6 74.25 Q 379.95 76.2 378.225 78.075 Q 376.5 79.95 374.7 81.6 Q 370.858 85.174 367.336 86.619 A 12.18 12.18 0 0 1 362.7 87.6 Q 358.95 87.6 357.675 85.35 Q 356.4 83.1 356.4 79.8 Q 356.4 76.2 358.35 72 A 66.957 66.957 0 0 1 361.139 66.662 A 81.186 81.186 0 0 1 363.15 63.375 Q 366 58.95 368.925 54.75 A 108.112 108.112 0 0 0 371.453 50.961 Q 372.6 49.156 373.537 47.496 A 63.286 63.286 0 0 0 373.8 47.025 A 22.45 22.45 0 0 0 374.786 45.031 Q 375.678 42.955 375.745 41.355 A 6.133 6.133 0 0 0 375.75 41.1 Q 375.75 40.247 374.808 40.203 A 2.263 2.263 0 0 0 374.7 40.2 Q 373.964 40.2 372.073 41.656 A 32.266 32.266 0 0 0 371.175 42.375 A 80.994 80.994 0 0 0 368.456 44.738 A 110.323 110.323 0 0 0 365.55 47.475 A 322.785 322.785 0 0 0 362.644 50.344 A 275.047 275.047 0 0 0 359.925 53.1 Q 357.39 55.707 356.464 56.916 A 10.117 10.117 0 0 0 356.4 57 Q 352.65 61.05 349.125 65.7 Q 345.6 70.35 342.45 74.7 A 43.501 43.501 0 0 0 339.385 79.711 A 40.22 40.22 0 0 0 339.3 79.875 A 119.389 119.389 0 0 1 337.302 83.591 A 140.525 140.525 0 0 1 336.3 85.35 A 3.777 3.777 0 0 1 335.724 86.143 A 2.599 2.599 0 0 1 334.275 86.925 Q 333 87.15 330.9 87.3 A 51.41 51.41 0 0 0 330.188 87.305 Q 329.373 87.316 328.777 87.355 A 15.068 15.068 0 0 0 328.5 87.375 A 3.791 3.791 0 0 0 327.631 87.558 Q 327.242 87.686 326.828 87.899 A 7.187 7.187 0 0 0 326.55 88.05 Z M 41.7 13.65 L 41.7 15.9 Q 41.7 17.824 40.35 21.243 A 45.978 45.978 0 0 1 39.6 23.025 A 120.854 120.854 0 0 1 37.256 27.975 Q 35.963 30.563 34.425 33.375 A 334.902 334.902 0 0 1 29.855 41.475 A 291.819 291.819 0 0 1 28.35 44.025 A 687.226 687.226 0 0 1 26.925 46.402 Q 25.533 48.712 24.46 50.445 A 198.019 198.019 0 0 1 23.55 51.9 A 115.284 115.284 0 0 0 20.644 56.419 Q 19.165 58.833 17.631 61.564 A 127.956 127.956 0 0 0 17.625 61.575 A 335.751 335.751 0 0 0 12.531 70.984 A 305.869 305.869 0 0 0 11.85 72.3 A 188.085 188.085 0 0 0 9.206 77.494 A 139.559 139.559 0 0 0 6.975 82.275 A 68.978 68.978 0 0 0 6.07 84.408 Q 4.875 87.375 4.65 88.95 A 8.642 8.642 0 0 1 1.935 86.731 A 8.327 8.327 0 0 1 1.2 85.65 Q 0.113 83.749 0.011 80.002 A 29.286 29.286 0 0 1 0 79.2 A 13.12 13.12 0 0 1 0.516 75.643 Q 0.917 74.217 1.629 72.724 A 21.984 21.984 0 0 1 1.725 72.525 Q 3.45 69 5.775 65.625 Q 7.773 62.725 9.273 60.323 A 95.042 95.042 0 0 0 9.75 59.55 Q 16.8 48 24 36.3 Q 30.441 25.834 34.241 16.688 A 97.566 97.566 0 0 0 35.1 14.55 A 175.372 175.372 0 0 1 30.93 15.114 Q 28.58 15.404 25.95 15.675 Q 20.85 16.2 15.6 16.2 A 25.491 25.491 0 0 1 13.121 16.089 Q 9.073 15.692 7.725 13.875 A 8.785 8.785 0 0 1 6.33 11.141 A 7.988 7.988 0 0 1 6 8.85 Q 7.336 9.295 9.626 9.447 A 29.78 29.78 0 0 0 9.675 9.45 A 63.871 63.871 0 0 0 11.556 9.542 Q 12.397 9.571 13.333 9.585 A 125.944 125.944 0 0 0 15.3 9.6 Q 18.75 9.6 23.175 9.45 Q 27.6 9.3 32.7 9 A 19.393 19.393 0 0 0 33.287 8.99 Q 33.854 8.973 34.575 8.925 A 39.407 39.407 0 0 0 36.305 8.77 A 43.764 43.764 0 0 0 36.9 8.7 A 3.096 3.096 0 0 0 37.287 7.645 A 4.205 4.205 0 0 0 37.35 6.9 Q 38.55 6.9 39.3 7.35 A 4.924 4.924 0 0 1 40.4 8.258 A 5.803 5.803 0 0 1 40.65 8.55 Q 45.75 7.95 51.075 7.5 Q 56.4 7.05 59.25 7.05 A 16.432 16.432 0 0 1 61.089 7.145 Q 63.418 7.409 64.575 8.4 Q 66.15 9.75 66.525 11.7 Q 66.9 13.65 66.9 15.6 A 2.58 2.58 0 0 0 66.356 15.272 Q 65.394 14.818 63.281 14.365 A 48.1 48.1 0 0 0 61.95 14.1 Q 57.9 13.35 50.25 13.35 A 110.446 110.446 0 0 0 47.241 13.392 A 123.463 123.463 0 0 0 46.2 13.425 A 152.812 152.812 0 0 0 44.025 13.519 A 187.036 187.036 0 0 0 41.7 13.65 Z M 250.113 86.514 A 19.575 19.575 0 0 0 252.9 86.7 Q 254.25 86.7 256.697 86.32 A 73.904 73.904 0 0 0 258.45 86.025 Q 262.2 85.35 266.625 84.525 Q 271.05 83.7 275.325 83.025 Q 278.064 82.593 280.218 82.437 A 31.18 31.18 0 0 1 282.45 82.35 L 283.575 82.35 Q 284.1 82.35 284.55 82.5 Q 284.449 80.081 283.028 78.949 A 4.344 4.344 0 0 0 281.325 78.15 Q 279.595 77.728 277.557 77.544 A 37.281 37.281 0 0 0 274.2 77.4 Q 268.8 77.4 263.625 78.6 Q 258.45 79.8 253.35 79.8 A 6.385 6.385 0 0 1 251.825 79.634 Q 250.037 79.193 249.515 77.579 A 4.969 4.969 0 0 1 249.3 76.05 A 12.447 12.447 0 0 1 249.412 74.423 Q 249.575 73.185 249.977 71.806 A 26.509 26.509 0 0 1 250.95 69.075 Q 252.6 65.1 254.7 61.275 A 347.185 347.185 0 0 0 255.133 60.484 Q 256.927 57.197 258 55.05 A 272.444 272.444 0 0 1 260.229 50.968 A 320.264 320.264 0 0 1 265.65 41.625 A 248.706 248.706 0 0 0 268.673 36.468 A 208.914 208.914 0 0 0 273.15 28.2 Q 275.55 23.55 277.05 19.575 Q 278.081 16.842 278.404 14.854 A 10.405 10.405 0 0 0 278.55 13.2 Q 278.55 11.756 278.061 10.15 A 16.089 16.089 0 0 0 277.2 7.95 A 8.767 8.767 0 0 0 277.078 7.702 Q 275.743 5.1 273.45 5.1 A 1.853 1.853 0 0 0 273.231 5.115 Q 272.94 5.149 272.522 5.269 A 10.209 10.209 0 0 0 272.1 5.4 A 14.26 14.26 0 0 1 272.099 5.6 Q 272.058 8.524 270.824 12.409 A 48.725 48.725 0 0 1 269.4 16.275 A 123.307 123.307 0 0 1 267.108 21.464 A 152.223 152.223 0 0 1 262.8 29.925 A 292.395 292.395 0 0 1 258.938 36.769 A 237.744 237.744 0 0 1 255.15 43.05 Q 249.6 51.9 245.325 60.9 Q 243.054 65.681 241.989 70.039 A 31.017 31.017 0 0 0 241.05 77.4 A 6.179 6.179 0 0 0 241.097 78.155 Q 241.281 79.646 242.175 81.375 Q 243.3 83.55 245.925 85.125 A 9.287 9.287 0 0 0 247.479 85.865 Q 248.669 86.306 250.113 86.514 Z M 75.391 88.956 A 15.459 15.459 0 0 0 79.2 89.4 Q 86.25 89.4 92.025 85.95 A 64.076 64.076 0 0 0 94.474 84.414 Q 96.413 83.134 98.01 81.853 A 31.698 31.698 0 0 0 101.1 79.05 Q 103.95 76.05 106.65 72.825 Q 109.35 69.6 112.05 66.3 A 2.454 2.454 0 0 0 112.254 66.07 A 1.786 1.786 0 0 0 112.65 64.95 A 3.116 3.116 0 0 0 112.624 64.529 Q 112.544 63.948 112.222 63.73 A 0.824 0.824 0 0 0 111.75 63.6 A 0.512 0.512 0 0 0 111.582 63.631 Q 111.411 63.691 111.203 63.864 A 2.996 2.996 0 0 0 111 64.05 Q 109.8 65.7 108.45 67.275 A 135.98 135.98 0 0 1 107.766 68.067 A 151.649 151.649 0 0 1 105.6 70.5 L 102.075 74.025 Q 100.5 75.6 98.85 77.1 Q 97.2 78.45 93.9 80.7 Q 90.6 82.95 86.85 84.675 A 24.411 24.411 0 0 1 86.631 84.775 Q 83.003 86.4 79.8 86.4 A 6.526 6.526 0 0 1 79.286 86.38 A 4.973 4.973 0 0 1 76.275 85.125 A 3.714 3.714 0 0 1 75.329 83.75 Q 75.076 83.137 74.957 82.362 A 9.953 9.953 0 0 1 74.85 80.85 A 14.415 14.415 0 0 1 74.855 80.457 A 12.415 12.415 0 0 1 74.925 79.425 A 14.906 14.906 0 0 1 74.992 78.908 A 17.825 17.825 0 0 1 75.15 78 A 58.448 58.448 0 0 1 75.488 76.294 A 72.052 72.052 0 0 1 75.9 74.475 A 58.121 58.121 0 0 1 75.928 74.358 A 63.206 63.206 0 0 1 76.95 70.65 A 65.93 65.93 0 0 0 82.565 69.125 A 54.255 54.255 0 0 0 93.525 64.275 A 42.691 42.691 0 0 0 99.856 59.708 A 52.847 52.847 0 0 0 106.8 52.35 Q 108.45 50.25 109.2 48.3 Q 109.634 47.173 109.817 46.196 A 7.326 7.326 0 0 0 109.95 44.85 A 9.485 9.485 0 0 0 109.948 44.678 Q 109.917 42.935 109.241 41.522 A 7.381 7.381 0 0 0 107.025 38.85 Q 104.1 36.6 100.05 36.6 Q 95.7 36.6 90.525 39.825 A 43.66 43.66 0 0 0 85.897 43.164 A 55.661 55.661 0 0 0 80.475 48.3 Q 75.6 53.55 72.15 59.85 Q 71.016 61.809 69.846 64.761 A 73.608 73.608 0 0 0 68.775 67.65 A 33.466 33.466 0 0 0 67.724 71.299 A 26.341 26.341 0 0 0 67.05 77.1 A 20.337 20.337 0 0 0 67.053 77.441 Q 67.086 79.436 67.514 81.118 A 10.535 10.535 0 0 0 70.35 86.175 A 10.905 10.905 0 0 0 75.391 88.956 Z M 45 87.15 Q 41.7 87.15 39.3 84.975 A 6.305 6.305 0 0 1 37.708 82.606 Q 36.924 80.656 36.901 77.734 A 22.621 22.621 0 0 1 36.9 77.55 Q 36.9 75.3 37.35 72.6 Q 38.7 65.55 41.775 59.1 A 144.415 144.415 0 0 1 44.437 53.787 Q 45.812 51.184 47.156 48.941 A 82.681 82.681 0 0 1 47.775 47.925 A 2009.406 2009.406 0 0 0 48.958 46.012 Q 50.442 43.608 51.203 42.358 A 135.835 135.835 0 0 0 51.6 41.7 Q 52.35 40.2 55.5 38.775 Q 58.578 37.383 60.653 37.351 A 6.297 6.297 0 0 1 60.75 37.35 A 3.994 3.994 0 0 1 61.384 37.396 Q 62.55 37.584 62.55 38.55 A 2.885 2.885 0 0 1 62.036 40.186 A 3.781 3.781 0 0 1 61.8 40.5 Q 59.866 43.594 57.434 47.408 A 1294.078 1294.078 0 0 1 56.625 48.675 A 135.861 135.861 0 0 0 51.338 57.715 A 148.971 148.971 0 0 0 51 58.35 A 82.596 82.596 0 0 0 47.456 65.916 A 72.127 72.127 0 0 0 46.5 68.4 Q 44.827 73.002 44.709 76.956 A 19.979 19.979 0 0 0 44.7 77.55 A 9.981 9.981 0 0 0 44.797 78.991 Q 44.984 80.264 45.525 81.15 A 2.591 2.591 0 0 0 46.904 82.242 Q 47.616 82.5 48.6 82.5 A 6.167 6.167 0 0 0 50.505 82.173 Q 52.181 81.628 54.15 80.175 A 53.549 53.549 0 0 0 60.042 75.107 A 58.493 58.493 0 0 0 60.225 74.925 A 133.482 133.482 0 0 0 61.589 73.542 Q 62.894 72.198 63.781 71.194 A 30.075 30.075 0 0 0 64.5 70.35 A 201.652 201.652 0 0 1 66.708 67.959 A 180.089 180.089 0 0 1 67.425 67.2 Q 68.85 65.7 70.05 64.05 A 2.996 2.996 0 0 1 70.253 63.864 Q 70.461 63.691 70.632 63.631 A 0.512 0.512 0 0 1 70.8 63.6 A 0.824 0.824 0 0 1 71.272 63.73 Q 71.594 63.948 71.674 64.529 A 3.116 3.116 0 0 1 71.7 64.95 A 1.786 1.786 0 0 1 71.304 66.07 A 2.454 2.454 0 0 1 71.1 66.3 Q 69.45 68.25 67.8 70.275 Q 66.15 72.3 64.35 74.25 A 86.797 86.797 0 0 1 61.116 77.871 A 105.391 105.391 0 0 1 58.95 80.1 A 32.299 32.299 0 0 1 53.036 84.803 A 30.048 30.048 0 0 1 52.5 85.125 Q 49.05 87.15 45 87.15 Z M 295.916 87.815 A 13.547 13.547 0 0 0 299.25 88.2 Q 303.6 88.2 308.175 85.725 A 36.556 36.556 0 0 0 310.151 84.574 A 40.634 40.634 0 0 0 316.8 79.35 A 74.146 74.146 0 0 0 317.798 78.37 A 66.559 66.559 0 0 0 324 71.25 A 62.062 62.062 0 0 0 324.856 70.081 Q 327.382 66.544 328.8 63.45 A 46.922 46.922 0 0 0 328.994 63.01 Q 330.335 59.925 331.068 57.013 A 27.69 27.69 0 0 0 331.95 50.25 A 19.142 19.142 0 0 0 331.582 46.405 A 13.651 13.651 0 0 0 329.1 40.8 Q 327.118 38.193 323.541 37.398 A 15.882 15.882 0 0 0 320.1 37.05 A 15.686 15.686 0 0 0 318.929 37.094 Q 316.378 37.285 313.717 38.303 A 26.404 26.404 0 0 0 309.45 40.425 A 38.555 38.555 0 0 0 305.404 43.262 A 45.625 45.625 0 0 0 299.175 49.35 Q 294.45 54.9 291.45 61.65 A 50.7 50.7 0 0 0 290.843 63.089 Q 288.15 69.759 288.15 75.45 A 18.472 18.472 0 0 0 288.524 79.263 A 13 13 0 0 0 290.925 84.6 A 8.848 8.848 0 0 0 295.916 87.815 Z M 144.9 136.35 A 17.551 17.551 0 0 0 151.388 135.049 Q 153.687 134.14 156.031 132.594 A 32.319 32.319 0 0 0 156.9 132 A 56.544 56.544 0 0 0 163.676 126.323 A 72.793 72.793 0 0 0 168.75 120.825 Q 174.45 114 178.8 106.275 A 90.674 90.674 0 0 0 182.384 99.247 Q 183.916 95.869 184.961 92.701 A 54.997 54.997 0 0 0 185.25 91.8 A 37.327 37.327 0 0 1 183.802 92.686 Q 181.369 94.106 177.375 96.075 A 222.359 222.359 0 0 0 171.861 98.895 Q 168.969 100.423 165.804 102.186 A 358.76 358.76 0 0 0 165.6 102.3 Q 159.15 105.9 153.225 110.25 A 53.622 53.622 0 0 0 146.329 116.238 A 45.513 45.513 0 0 0 143.25 119.775 A 22.003 22.003 0 0 0 140.313 124.657 A 17.436 17.436 0 0 0 138.9 130.65 Q 138.795 132.017 139.427 133.348 A 7.286 7.286 0 0 0 140.1 134.475 A 4.063 4.063 0 0 0 141.975 135.881 Q 142.688 136.16 143.585 136.273 A 10.539 10.539 0 0 0 144.9 136.35 Z M 370.8 136.35 A 17.551 17.551 0 0 0 377.288 135.049 Q 379.587 134.14 381.931 132.594 A 32.319 32.319 0 0 0 382.8 132 A 56.544 56.544 0 0 0 389.576 126.323 A 72.793 72.793 0 0 0 394.65 120.825 Q 400.35 114 404.7 106.275 A 90.674 90.674 0 0 0 408.284 99.247 Q 409.816 95.869 410.861 92.701 A 54.997 54.997 0 0 0 411.15 91.8 A 37.327 37.327 0 0 1 409.702 92.686 Q 407.269 94.106 403.275 96.075 A 222.359 222.359 0 0 0 397.761 98.895 Q 394.869 100.423 391.704 102.186 A 358.76 358.76 0 0 0 391.5 102.3 Q 385.05 105.9 379.125 110.25 A 53.622 53.622 0 0 0 372.229 116.238 A 45.513 45.513 0 0 0 369.15 119.775 A 22.003 22.003 0 0 0 366.213 124.657 A 17.436 17.436 0 0 0 364.8 130.65 Q 364.695 132.017 365.327 133.348 A 7.286 7.286 0 0 0 366 134.475 A 4.063 4.063 0 0 0 367.875 135.881 Q 368.588 136.16 369.485 136.273 A 10.539 10.539 0 0 0 370.8 136.35 Z M 302.1 85.2 Q 305.25 85.2 308.4 83.025 A 33.326 33.326 0 0 0 312.865 79.305 A 39.239 39.239 0 0 0 314.4 77.7 A 59.11 59.11 0 0 0 318.295 72.933 A 51.883 51.883 0 0 0 319.425 71.325 A 64.1 64.1 0 0 0 320.787 69.223 Q 321.961 67.327 322.65 65.85 A 50.514 50.514 0 0 0 324.978 60.856 A 39.088 39.088 0 0 0 326.4 56.625 Q 327.319 53.237 327.534 50.509 A 20.464 20.464 0 0 0 327.6 48.9 A 14.109 14.109 0 0 0 327.381 46.295 Q 326.514 41.7 322.2 41.7 A 9.545 9.545 0 0 0 318.915 42.316 Q 317.12 42.972 315.225 44.325 A 30.697 30.697 0 0 0 311.606 47.381 Q 309.825 49.125 308.1 51.3 Q 304.65 55.65 302.1 61.05 A 77.713 77.713 0 0 0 299.49 66.805 Q 296.7 73.749 296.7 78.6 A 12.798 12.798 0 0 0 296.865 80.747 Q 297.054 81.852 297.459 82.675 A 4.015 4.015 0 0 0 300.15 84.9 Q 300.6 85.05 301.05 85.125 A 5.11 5.11 0 0 0 301.472 85.176 Q 301.763 85.2 302.1 85.2 Z M 86.25 29.25 L 86.1 29.25 A 1.08 1.08 0 0 1 85.803 29.213 Q 85.47 29.118 85.382 28.778 A 1.105 1.105 0 0 1 85.35 28.5 A 1.49 1.49 0 0 1 85.658 27.601 Q 85.809 27.395 86.034 27.204 A 3.043 3.043 0 0 1 86.1 27.15 Q 88.35 25.35 90.9 23.175 A 642.782 642.782 0 0 0 94.598 19.997 A 566.537 566.537 0 0 0 95.775 18.975 A 142.107 142.107 0 0 1 96.867 18.033 Q 98.382 16.741 99.278 16.066 A 20.569 20.569 0 0 1 99.3 16.05 A 11.73 11.73 0 0 1 100.699 14.988 Q 101.473 14.494 102.214 14.235 A 4.791 4.791 0 0 1 103.8 13.95 Q 104.547 13.95 105.398 14.416 A 5.794 5.794 0 0 1 105.75 14.625 A 8.564 8.564 0 0 1 106.556 15.208 Q 106.952 15.534 107.253 15.875 A 4.829 4.829 0 0 1 107.4 16.05 A 144.495 144.495 0 0 0 108.108 16.927 Q 109.202 18.273 111.073 20.53 A 1136.891 1136.891 0 0 0 111.525 21.075 Q 114.45 24.6 116.85 27.15 Q 117.098 27.399 117.141 27.853 A 2.11 2.11 0 0 1 117.15 28.05 A 1.296 1.296 0 0 1 117.053 28.559 A 1.222 1.222 0 0 1 116.7 29.025 Q 116.379 29.293 116.134 29.293 A 0.405 0.405 0 0 1 115.95 29.25 Q 115.65 29.1 114.15 28.2 A 38.872 38.872 0 0 1 112.415 27.093 A 48.931 48.931 0 0 1 111 26.1 Q 109.35 24.9 108.6 24.3 Q 107.7 23.55 106.05 22.275 Q 104.4 21 102.75 19.65 A 64.204 64.204 0 0 1 99.165 21.955 A 70.398 70.398 0 0 1 98.625 22.275 Q 96.96 23.251 95.866 23.92 A 72.668 72.668 0 0 0 95.25 24.3 A 109.623 109.623 0 0 0 94.664 24.638 Q 93.694 25.2 92.175 26.1 Q 90.15 27.3 88.425 28.2 Q 87.062 28.911 86.495 29.154 A 3.32 3.32 0 0 1 86.25 29.25 Z M 77.85 68.7 A 50.815 50.815 0 0 0 80.954 67.252 Q 82.643 66.398 84.522 65.322 A 106.037 106.037 0 0 0 86.925 63.9 A 64.629 64.629 0 0 0 95.136 57.94 A 73.667 73.667 0 0 0 96.975 56.325 A 46.335 46.335 0 0 0 102.978 49.769 A 40.557 40.557 0 0 0 105 46.8 Q 106.05 45.15 106.05 43.8 A 2.614 2.614 0 0 0 105.914 42.919 Q 105.501 41.764 103.838 41.703 A 5.165 5.165 0 0 0 103.65 41.7 A 5.807 5.807 0 0 0 102.427 41.842 Q 101.175 42.113 99.6 42.9 Q 92.1 46.95 86.7 53.85 Q 81.3 60.75 77.85 68.7 Z M 311.4 13.5 L 311.55 13.5 A 3.354 3.354 0 0 1 313.137 13.908 A 4.316 4.316 0 0 1 313.575 14.175 Q 314.55 14.85 315.15 15.6 Q 316.738 17.044 319.995 20.365 A 362.773 362.773 0 0 1 320.25 20.625 A 164.955 164.955 0 0 0 323.154 23.523 Q 324.499 24.83 325.737 25.964 A 95.103 95.103 0 0 0 326.55 26.7 A 1.568 1.568 0 0 1 326.877 27.163 A 1.409 1.409 0 0 1 327 27.75 A 2.598 2.598 0 0 1 326.975 28.125 Q 326.842 29.034 325.988 28.81 A 1.772 1.772 0 0 1 325.95 28.8 Q 325.694 28.672 324.452 27.997 A 490.269 490.269 0 0 1 324 27.75 A 42.163 42.163 0 0 1 321.906 26.525 A 52.022 52.022 0 0 1 320.55 25.65 L 317.85 23.85 A 114.304 114.304 0 0 1 317.105 23.349 Q 315.881 22.519 314.025 21.225 A 82.141 82.141 0 0 1 311.245 19.203 A 66.123 66.123 0 0 1 309.525 17.85 A 83.451 83.451 0 0 1 309.048 17.459 Q 307.795 16.422 307.46 16.046 A 0.77 0.77 0 0 1 307.35 15.9 Q 307.35 15.422 308.017 14.8 A 6.024 6.024 0 0 1 308.4 14.475 Q 309.203 13.844 310.534 13.608 A 8.846 8.846 0 0 1 311.4 13.5 Z M 114.9 15.3 L 114.75 15.3 Q 113.897 15.3 113.852 14.358 A 2.263 2.263 0 0 1 113.85 14.25 A 1.153 1.153 0 0 1 114.134 13.496 A 1.854 1.854 0 0 1 114.45 13.2 A 128.045 128.045 0 0 0 117.073 10.782 Q 118.842 9.108 120.825 7.125 L 125.85 2.1 Q 126.45 1.35 127.425 0.675 A 3.95 3.95 0 0 1 128.387 0.18 A 3.245 3.245 0 0 1 129.45 0 Q 131.55 0 132.525 0.9 A 6.312 6.312 0 0 1 132.905 1.279 Q 133.28 1.691 133.419 2.029 A 0.983 0.983 0 0 1 133.5 2.4 Q 133.5 2.655 132.036 3.886 A 47.224 47.224 0 0 1 131.475 4.35 A 69.154 69.154 0 0 1 128.84 6.389 A 85.741 85.741 0 0 1 126.975 7.725 A 453.245 453.245 0 0 1 125.808 8.536 Q 124.163 9.675 123.15 10.35 L 120.45 12.15 A 49.636 49.636 0 0 1 118.312 13.501 A 40.161 40.161 0 0 1 117 14.25 A 67.619 67.619 0 0 1 116.423 14.561 Q 115.551 15.026 115.128 15.21 A 2.885 2.885 0 0 1 114.9 15.3 Z M 64.221 27.685 A 3.95 3.95 0 0 0 65.55 27.9 Q 67.5 27.9 68.925 26.55 Q 70.35 25.2 70.8 23.25 Q 70.871 22.785 70.862 22.359 A 3.531 3.531 0 0 0 69.975 20.025 A 3.604 3.604 0 0 0 68.246 18.929 A 4.798 4.798 0 0 0 66.9 18.75 A 4.521 4.521 0 0 0 64.69 19.32 A 5.855 5.855 0 0 0 63.375 20.325 A 6.197 6.197 0 0 0 63.326 20.374 A 5.203 5.203 0 0 0 61.8 24.15 Q 61.8 25.65 62.85 26.775 A 3.421 3.421 0 0 0 64.221 27.685 Z" vector-effect="non-scaling-stroke"/></g></svg>